<mxfile host="app.diagrams.net" modified="2024-04-03T19:33:16.439Z" agent="Mozilla/5.0 (Windows NT 10.0; Win64; x64; rv:124.0) Gecko/20100101 Firefox/124.0" version="24.2.2" etag="3qilS6Y1HabO_nHuO_iY" type="github">
  <diagram name="Page-1" id="77dtjm-Tl19cTkVyTM6i">
    <mxGraphModel>
      <root>
        <mxCell id="0" />
        <mxCell id="1" parent="0" />
      </root>
    </mxGraphModel>
  </diagram>
</mxfile>
